<svg width="540" height="960" xmlns="http://www.w3.org/2000/svg" version="1.1">

 <g>
  <title>Layer 1</title>
  <path id="svg_1" fill="#6198ff" d="m0,356l22.5,8c22.5,8 67.5,24 112.5,25.7c45,1.6 90,-11 135,-17.4c45,-6.3 90,-6.3 135,-3.1c45,3.1 90,9.5 112.5,12.6l22.5,3.2l0,-385l-22.5,0c-22.5,0 -67.5,0 -112.5,0c-45,0 -90,0 -135,0c-45,0 -90,0 -135,0c-45,0 -90,0 -112.5,0l-22.5,0l0,356z"/>
  <path stroke="null" id="svg_2" fill="#0066ff" d="m0,593.62567l22.5,5.10993c22.5,5.21639 67.5,15.43625 112.5,17.24602c45,1.80977 90,-5.00347 135,-6.70678c45,-1.80977 90,1.38394 135,2.98079c45,1.59685 90,1.59685 112.5,1.59685l22.5,0l0,-246.97998l-22.5,-3.40662c-22.5,-3.30016 -67.5,-10.1134 -112.5,-13.41357c-45,-3.40662 -90,-3.40662 -135,3.30016c-45,6.81324 -91,12.22681 -136,10.5235c-45,-1.80977 -95,-5.84287 -117.5,-14.35942l-20.5,-6.51655l4,250.62567z"/>
  <path stroke="null" id="svg_3" fill="#004cbb" d="m0,961l22.5,0c22.5,0 67.5,0 112.5,0c45,0 90,0 135,0c45,0 90,0 135,0c45,0 90,0 112.5,0l22.5,0l0,-348.94822l-22.5,0c-22.5,0 -67.5,0 -112.5,-1.50409c-45,-1.50409 -90,-4.51226 -135,-2.80763c-45,1.60436 -90,8.0218 -135,6.31717c-45,-1.70463 -90,-11.33079 -112.5,-16.24414l-22.5,-4.81308l0,367.99999z"/>
 </g>
</svg>